<svg xmlns="http://www.w3.org/2000/svg" xmlns:xlink="http://www.w3.org/1999/xlink" width="500" zoomAndPan="magnify" viewBox="0 0 375 374.999991" height="500" preserveAspectRatio="xMidYMid meet" version="1.0"><defs><g/><clipPath id="0d3182d3a7"><path d="M 84.964844 69.535156 L 290.035156 69.535156 L 290.035156 274.609375 L 84.964844 274.609375 Z M 84.964844 69.535156 " clip-rule="nonzero"/></clipPath><clipPath id="e3be2d36df"><path d="M 187.5 69.535156 C 130.871094 69.535156 84.964844 115.441406 84.964844 172.070312 C 84.964844 228.699219 130.871094 274.609375 187.5 274.609375 C 244.128906 274.609375 290.035156 228.699219 290.035156 172.070312 C 290.035156 115.441406 244.128906 69.535156 187.5 69.535156 " clip-rule="nonzero"/></clipPath></defs><g clip-path="url(#0d3182d3a7)"><g clip-path="url(#e3be2d36df)"><path fill="#f5ebe0" d="M 84.964844 69.535156 L 290.035156 69.535156 L 290.035156 274.609375 L 84.964844 274.609375 Z M 84.964844 69.535156 " fill-opacity="1" fill-rule="nonzero"/></g></g><g fill="#000000" fill-opacity="1"><g transform="translate(78.835286, 239.437052)"><g><path d="M 86.9375 -126.421875 L 86.9375 -32.78125 C 86.9375 -27.46875 86.03125 -22.632812 84.21875 -18.28125 C 82.40625 -13.9375 79.835938 -10.253906 76.515625 -7.234375 C 73.203125 -4.222656 69.25 -1.898438 64.65625 -0.265625 C 60.070312 1.359375 55.0625 2.171875 49.625 2.171875 C 39.96875 2.171875 32 -0.332031 25.71875 -5.34375 C 19.4375 -10.351562 15.332031 -17.382812 13.40625 -26.4375 L 27.890625 -29.515625 C 28.492188 -26.984375 29.304688 -24.597656 30.328125 -22.359375 C 31.359375 -20.128906 32.75 -18.195312 34.5 -16.5625 C 36.25 -14.9375 38.390625 -13.640625 40.921875 -12.671875 C 43.460938 -11.710938 46.484375 -11.234375 49.984375 -11.234375 C 56.867188 -11.234375 62.210938 -13.191406 66.015625 -17.109375 C 69.816406 -21.035156 71.71875 -27.164062 71.71875 -35.5 L 71.71875 -113.203125 L 26.078125 -113.203125 L 26.078125 -126.421875 Z M 86.9375 -126.421875 "/></g></g></g><g fill="#000000" fill-opacity="1"><g transform="translate(187.504082, 239.437052)"><g><path d="M 53.96875 2.171875 C 42.625 2.171875 33.328125 0.0859375 26.078125 -4.078125 C 18.835938 -8.242188 12.863281 -13.585938 8.15625 -20.109375 L 19.203125 -29.15625 C 24.148438 -23 29.367188 -18.410156 34.859375 -15.390625 C 40.359375 -12.378906 46.910156 -10.875 54.515625 -10.875 C 63.691406 -10.875 70.695312 -12.984375 75.53125 -17.203125 C 80.363281 -21.429688 82.78125 -27.347656 82.78125 -34.953125 C 82.78125 -41.109375 81.023438 -45.90625 77.515625 -49.34375 C 74.015625 -52.789062 67.921875 -55.238281 59.234375 -56.6875 L 45.09375 -59.046875 C 38.9375 -60.128906 33.773438 -61.757812 29.609375 -63.9375 C 25.441406 -66.113281 22.09375 -68.738281 19.5625 -71.8125 C 17.03125 -74.894531 15.21875 -78.273438 14.125 -81.953125 C 13.039062 -85.640625 12.5 -89.472656 12.5 -93.453125 C 12.5 -105.046875 16.300781 -113.800781 23.90625 -119.71875 C 31.507812 -125.632812 41.773438 -128.59375 54.703125 -128.59375 C 64.847656 -128.59375 73.390625 -126.898438 80.328125 -123.515625 C 87.273438 -120.140625 92.859375 -115.375 97.078125 -109.21875 L 86.390625 -99.984375 C 82.890625 -104.566406 78.664062 -108.304688 73.71875 -111.203125 C 68.769531 -114.109375 62.367188 -115.5625 54.515625 -115.5625 C 45.941406 -115.5625 39.359375 -113.75 34.765625 -110.125 C 30.179688 -106.5 27.890625 -101.066406 27.890625 -93.828125 C 27.890625 -88.148438 29.609375 -83.53125 33.046875 -79.96875 C 36.492188 -76.40625 42.6875 -73.835938 51.625 -72.265625 L 65.203125 -69.921875 C 71.359375 -68.828125 76.550781 -67.191406 80.78125 -65.015625 C 85.007812 -62.847656 88.421875 -60.253906 91.015625 -57.234375 C 93.609375 -54.210938 95.445312 -50.832031 96.53125 -47.09375 C 97.625 -43.351562 98.171875 -39.425781 98.171875 -35.3125 C 98.171875 -23.601562 94.335938 -14.425781 86.671875 -7.78125 C 79.003906 -1.144531 68.101562 2.171875 53.96875 2.171875 Z M 53.96875 2.171875 "/></g></g></g></svg>